<svg xmlns="http://www.w3.org/2000/svg" xmlns:xlink="http://www.w3.org/1999/xlink" viewBox="0 0 134.167 84.167" fill="#fff" fill-rule="evenodd" stroke-linecap="round" stroke-linejoin="round"><use xlink:href="#A" x="2.083" y="2.083"/><symbol id="A" overflow="visible"><g stroke="none" fill-rule="nonzero"><path d="M0 0h129.167v79.167H0z"/><path d="M0 0h129.167v10.417H0zm0 18.75h129.167v8.333H0zm0 16.667h129.167v8.333H0z" fill="#d22f27"/><path d="M0 0h66.667v43.75H0z" fill="#1e50a0"/><path d="M0 52.083h129.167v8.333H0z" fill="#d22f27"/><path d="M4.688 10.417a3.64 3.64 0 0 1 3.646-3.646 3.64 3.64 0 0 1 3.646 3.646 3.64 3.64 0 0 1-3.646 3.646 3.64 3.64 0 0 1-3.646-3.646z"/><use xlink:href="#C"/><use xlink:href="#C" x="16.666"/><use xlink:href="#C" x="33.334"/><use xlink:href="#C" x="25" y="8.333"/><use xlink:href="#C" x="8.334" y="8.333"/><use xlink:href="#C" x="-8.334" y="8.333"/><path d="M4.688 27.083a3.64 3.64 0 0 1 3.646-3.646 3.64 3.64 0 1 1 0 7.292 3.64 3.64 0 0 1-3.646-3.646z"/><use xlink:href="#C" y="16.666"/><use xlink:href="#C" x="16.666" y="16.666"/><use xlink:href="#C" x="33.334" y="16.666"/><use xlink:href="#C" x="25" y="25"/><use xlink:href="#C" x="8.334" y="25"/><use xlink:href="#C" x="-8.334" y="25"/><path d="M0 68.75h129.167v10.417H0z" fill="#d22f27"/></g><path d="M0 0h129.167v79.167H0z" fill="none" stroke-width="4.167"/></symbol><defs ><path id="C" d="M21.354 10.417a3.64 3.64 0 1 1 7.292 0 3.64 3.64 0 1 1-7.292 0z"/></defs></svg>