<svg xmlns="http://www.w3.org/2000/svg" xmlns:xlink="http://www.w3.org/1999/xlink" viewBox="0 0 134.167 84.167" fill="#fff" fill-rule="evenodd" stroke-linecap="round" stroke-linejoin="round"><use xlink:href="#A" x="2.083" y="2.083"/><symbol id="A" overflow="visible"><g stroke="none" fill-rule="nonzero"><path d="M0 0h129.167v79.167H0z" fill="#f1b31c"/><path d="M37.5 33.333v14.583a4.18 4.18 0 0 1-4.167 4.167H25a4.18 4.18 0 0 1-4.167-4.167V33.333M0 0h129.167v18.75H0zm0 60.417h129.167v18.75H0z" fill="#d22f27"/><path d="M29.167 33.333H37.5v8.333h-8.333z" fill="#f1b31c"/><path d="M26.042 41.667a3.12 3.12 0 1 1 6.25 0 3.12 3.12 0 1 1-6.25 0z" fill="#6a462f"/></g><g stroke="#6a462f" fill="none" stroke-width="4.167"><path d="M45.833 33.333v18.75M12.5 33.333v18.75m8.333-25A17.85 17.85 0 0 1 29.167 25m8.333 2.083A17.85 17.85 0 0 0 29.167 25m-8.333 8.333H37.5"/><path d="M37.5 33.333v14.583a4.18 4.18 0 0 1-4.167 4.167H25a4.18 4.18 0 0 1-4.167-4.167V33.333m-10.417 18.75h4.167m29.167 0h4.167"/></g><path d="M0 0h129.167v79.167H0z" stroke-width="4.167" fill="none"/></symbol></svg>