<?xml version="1.0" ?><svg viewBox="0 0 427.14 447.28" xmlns="http://www.w3.org/2000/svg"><title/><g data-name="Layer 2" id="Layer_2"><g data-name="brazil, christ, jesus, statue, rio, religion, christianity, landmark, travel" id="brazil_christ_jesus_statue_rio_religion_christianity_landmark_travel"><path d="M20.28,144.68H38.89a18.9,18.9,0,0,0,13.44-5.57A8,8,0,0,1,58,136.75h3.62L76,153.54a32.79,32.79,0,0,0,25,11.51h37.63A58.78,58.78,0,0,0,156.73,179v39.63a39.65,39.65,0,0,0,11.62,27.87,54.25,54.25,0,0,1,6.74,8.59c1.3,2.68,9.32,18.31,24.56,28.87h0c1.3.89,2.64,1.76,4,2.57a85.07,85.07,0,0,1,18.31,14l.05,0,0,0a64.38,64.38,0,0,0,21.13,14.55,19.4,19.4,0,0,0,12,1.05l.79,70H247.5V370.42a5.47,5.47,0,0,0-10.94,0v15.91a5.45,5.45,0,0,0,.53,10.88H265a14,14,0,0,1,13.93,13.94v25.2H145v-25.2a14,14,0,0,1,13.93-13.94h59.28a5.47,5.47,0,1,0,0-10.93h-6.87l1.17-30.95a5.46,5.46,0,1,0-10.92-.42l-1.19,31.37h-9.69l2.62-79.64a5.47,5.47,0,0,0-10.93-.36l-2.63,80H168l4.36-116.63a5.47,5.47,0,0,0-10.93-.41L157,386.38a24.88,24.88,0,0,0-23,24.77v25.2h-20a5.47,5.47,0,0,0,0,10.93H303.52a5.47,5.47,0,0,0,0-10.93H289.81v-25.2A24.89,24.89,0,0,0,267,386.38l-.86-75.17a5.44,5.44,0,0,0-.26-1.52,19.41,19.41,0,0,0,4.52-12.43l0-132.21h55.74a32.82,32.82,0,0,0,25-11.51l14.35-16.8h3.62a8,8,0,0,1,5.71,2.36,18.88,18.88,0,0,0,13.44,5.57h18.6a20.28,20.28,0,1,0,0-40.55h-24a5.51,5.51,0,0,0-.57.06,5.16,5.16,0,0,0-.79-.06c-4.83,0-10-.25-15.46-.74a5.46,5.46,0,1,0-1,10.88q2.49.24,4.92.39l-27.15,31.78a21.88,21.88,0,0,1-16.66,7.68H270.41V130.23a5.47,5.47,0,0,0-10.94,0v29.36l0,137.67a8.41,8.41,0,0,1-3.81,7.1,8.57,8.57,0,0,1-8.18.75,53,53,0,0,1-16.06-10.65V265.82a5.47,5.47,0,0,0-10.94,0v18.81a104.24,104.24,0,0,0-11.27-7.54l-1-.61V201.83a5.47,5.47,0,0,0-10.94,0v65.74a72.44,72.44,0,0,1-12.39-17.42,5.93,5.93,0,0,0-.36-.65,65.41,65.41,0,0,0-8.34-10.66,28.8,28.8,0,0,1-8.49-20.21V182.31a62.75,62.75,0,0,0,10.1.87,39,39,0,0,0,14.86-2.64,5.47,5.47,0,0,0-4.18-10.1c-9.37,3.88-22.33.48-24.35-.09a47.75,47.75,0,0,1-18.61-14.14c-9.73-12.88-9.84-27.92-9.84-28.13a5.47,5.47,0,0,0-5.43-5.49h0a5.46,5.46,0,0,0-5.46,5.42,62.17,62.17,0,0,0,6.65,26.11H101a21.9,21.9,0,0,1-16.67-7.68L57.17,114.66c.86,0,1.71-.12,2.57-.18a5.47,5.47,0,1,0-.86-10.9c-4.61.36-9.06.55-13.22.55H20.28a20.28,20.28,0,0,0,0,40.55Zm393.93-26a9.34,9.34,0,0,1-7.36,15.1h-18.6a8.05,8.05,0,0,1-5.71-2.37,18.92,18.92,0,0,0-8.33-4.86L384,115.06h22.85A9.28,9.28,0,0,1,414.21,118.65Zm-401.29,0a9.3,9.3,0,0,1,7.36-3.59H43.14l9.79,11.46a18.92,18.92,0,0,0-8.33,4.86,8.07,8.07,0,0,1-5.71,2.37H20.28a9.35,9.35,0,0,1-7.36-15.1Z"/><path d="M333.62,447.28a5.47,5.47,0,1,0,0-10.93h-3.28a5.47,5.47,0,0,0,0,10.93Z"/><path d="M137.68,93.79a5.47,5.47,0,0,0-3.37-10.4c-5.69,1.85-11,3.8-15.71,5.8A182.94,182.94,0,0,1,84,100.12c-.1,0-.2.07-.3.1-1.34-1.9-2.12-3.06-2.15-3.11a5.47,5.47,0,0,0-9.07,6.1c.57.85,14.13,21,28,35.16a5.47,5.47,0,0,0,7.83-7.63,226.54,226.54,0,0,1-17.59-20.9,197.18,197.18,0,0,0,32.18-10.58C127.3,97.38,132.29,95.54,137.68,93.79Z"/><path d="M250,112.65a48.4,48.4,0,0,0,7.37-.6,17.57,17.57,0,0,0,3.18-1,20.41,20.41,0,0,0,12.75-15.95A20.87,20.87,0,0,0,266,75.61l-.15-.12A28.68,28.68,0,0,1,255.44,53.4V41.68A41.94,41.94,0,0,0,233.8,5a5.47,5.47,0,1,0-5.29,9.57,31,31,0,0,1,16,27.11V53.4a39.58,39.58,0,0,0,14.3,30.5L259,84a10.05,10.05,0,0,1,3.51,9.4,9.49,9.49,0,0,1-6,7.51,7.22,7.22,0,0,1-1.08.35c-7.21,1.09-12.5.18-15.74-2.72-4.27-3.83-4-10.37-4-10.39s0-.22,0-.34V47.68a22.1,22.1,0,1,0-44.2,0V87.83c0,.09,0,.21,0,.3s.24,6.6-4,10.43c-3.24,2.9-8.53,3.82-15.75,2.72a7.67,7.67,0,0,1-1.07-.35,9.47,9.47,0,0,1-6-7.51A10,10,0,0,1,168.19,84l.13-.12a39.53,39.53,0,0,0,14.3-30.49V41.68a30.85,30.85,0,0,1,27.7-30.78A5.46,5.46,0,1,0,209.19,0a41.75,41.75,0,0,0-37.5,41.65V53.4a28.68,28.68,0,0,1-10.36,22.1l-.14.11a20.9,20.9,0,0,0-7.32,19.54,20.45,20.45,0,0,0,12.75,15.95,17.09,17.09,0,0,0,3.28,1,47.27,47.27,0,0,0,7.28.6c7.33,0,13.26-2,17.69-6.07,7.6-6.92,7.59-17.18,7.53-18.86V78.12a21.92,21.92,0,0,0,22.34,0v9.61a25.58,25.58,0,0,0,.24,4.1,24.79,24.79,0,0,1-8.61,1,5.46,5.46,0,1,0-.39,10.92q.79,0,1.65,0a34.29,34.29,0,0,0,11-1.63,21.27,21.27,0,0,0,3.68,4.45Q238.91,112.64,250,112.65Zm-36.39-42.4A11.18,11.18,0,0,1,202.4,59.08V47.68a11.17,11.17,0,0,1,22.34,0v11.4A11.18,11.18,0,0,1,213.57,70.25Z"/><path d="M231.4,124.4a5.47,5.47,0,0,0-10.94,0v96.78a5.47,5.47,0,0,0,10.94,0Z"/><path d="M225.93,237.83a5.46,5.46,0,0,0-5.47,5.46v2a5.47,5.47,0,0,0,10.94,0v-2A5.46,5.46,0,0,0,225.93,237.83Z"/><path d="M200.47,149.15c-34.05,6-41.48-12.89-41.83-13.83a5.46,5.46,0,0,0-10.33,3.55c.35,1,8,22.42,39.43,22.42a84.33,84.33,0,0,0,14.64-1.37,5.47,5.47,0,1,0-1.91-10.77Z"/><path d="M207.88,333.48h.21a5.47,5.47,0,0,0,5.46-5.26l.07-2a5.46,5.46,0,0,0-10.92-.41l-.08,2A5.47,5.47,0,0,0,207.88,333.48Z"/><path d="M311.31,132.53a5.46,5.46,0,1,0,5.93,9.18c20.54-13.29,34.72-37.79,35.32-38.83a5.47,5.47,0,1,0-9.49-5.43s-.52.9-1.43,2.34a185,185,0,0,1-33.1-10.6c-4.72-2-10-3.94-15.68-5.79a5.47,5.47,0,1,0-3.38,10.4c5.39,1.75,10.37,3.59,14.8,5.46a199.6,199.6,0,0,0,30.63,10.2C329.23,116.93,321,126.28,311.31,132.53Z"/></g></g></svg>