<?xml version="1.0" ?><!DOCTYPE svg  PUBLIC '-//W3C//DTD SVG 1.0//EN'  'http://www.w3.org/TR/2001/REC-SVG-20010904/DTD/svg10.dtd'><svg enable-background="new 0 0 512 512" id="Layer_1" version="1.0" viewBox="0 0 512 512" xml:space="preserve" xmlns="http://www.w3.org/2000/svg" xmlns:xlink="http://www.w3.org/1999/xlink"><g><g><g><path d="M412,403.7c0-48,0-96.1,0-144.1c0-1.5,0-2.9,0-4.4c0-9.7-15-9.7-15,0c0,48,0,96.1,0,144.1c0,1.5,0,2.9,0,4.4     C397,413.4,412,413.4,412,403.7L412,403.7z"/></g></g><g><g><path d="M362.5,403.7c0-48,0-96.1,0-144.1c0-1.5,0-2.9,0-4.4c0-9.7-15-9.7-15,0c0,48,0,96.1,0,144.1c0,1.5,0,2.9,0,4.4     C347.5,413.4,362.5,413.4,362.5,403.7L362.5,403.7z"/></g></g><g><g><path d="M421,429.2c-27.5,0-55,0-82.5,0c2.5,2.5,5,5,7.5,7.5c0-5.6,0-11.3,0-16.9c0-3,0-6,0-9c0-1.4,0.4-1-0.4,0     c-0.5,0.6-1.6,0.4-0.6,0.4c11.6,0,23.2,0,34.8,0s23.2,0,34.8,0c0.9,0,0.1,0.2-0.6-0.4c-0.8-0.6-0.4-1.6-0.4,0c0,3,0,6,0,9     c0,5.6,0,11.3,0,16.9c0,9.7,15,9.7,15,0c0-6,0-11.9,0-17.9c0-7.1,1.2-16.5-6.3-20.6c-4.4-2.4-8.9-2-13.7-2c-6.9,0-13.8,0-20.8,0     c-13.7,0-27.4,0-41.1,0c-8.5,0-14.7,4.6-15.6,13.5c-0.6,5.8,0,12,0,17.9c0,3,0,6.1,0,9.1c0,4.1,3.4,7.5,7.5,7.5     c27.5,0,55,0,82.5,0C430.7,444.2,430.7,429.2,421,429.2z"/></g></g><g><g><path d="M421,214.8c-27.5,0-55,0-82.5,0c-4.1,0-7.5,3.4-7.5,7.5c0,6,0,11.9,0,17.9c0,7.1-1.2,16.5,6.3,20.6c4.4,2.4,8.9,2,13.7,2     c6.9,0,13.8,0,20.8,0c13.7,0,27.4,0,41.1,0c8.6,0,14.7-4.6,15.6-13.5c0.6-5.8,0-12,0-17.9c0-3,0-6.1,0-9.1c0-9.7-15-9.7-15,0     c0,5.6,0,11.3,0,16.9c0,3,0,6,0,9c0,1.4-0.4,1,0.4,0c0.5-0.6,1.6-0.4,0.6-0.4c-11.6,0-23.2,0-34.8,0s-23.2,0-34.8,0     c-0.9,0-0.1-0.2,0.6,0.4c0.8,0.6,0.4,1.6,0.4,0c0-3,0-6,0-9c0-5.6,0-11.3,0-16.9c-2.5,2.5-5,5-7.5,7.5c27.5,0,55,0,82.5,0     C430.7,229.8,430.7,214.8,421,214.8z"/></g></g><g><g><path d="M421,229.8c9.7,0,9.7-15,0-15C411.3,214.8,411.3,229.8,421,229.8L421,229.8z"/></g></g><g><g><path d="M164.5,403.7c0-48,0-96.1,0-144.1c0-1.5,0-2.9,0-4.4c0-9.7-15-9.7-15,0c0,48,0,96.1,0,144.1c0,1.5,0,2.9,0,4.4     C149.5,413.4,164.5,413.4,164.5,403.7L164.5,403.7z"/></g></g><g><g><path d="M115,403.7c0-48,0-96.1,0-144.1c0-1.5,0-2.9,0-4.4c0-9.7-15-9.7-15,0c0,48,0,96.1,0,144.1c0,1.5,0,2.9,0,4.4     C100,413.4,115,413.4,115,403.7L115,403.7z"/></g></g><g><g><path d="M173.5,429.2c-27.5,0-55,0-82.5,0c2.5,2.5,5,5,7.5,7.5c0-5.3,0-10.6,0-16c0-3.2,0-6.3,0-9.5c0-2.9-1.4,0-1.1,0     c11.6,0,23.2,0,34.8,0c11.5,0,23.1,0,34.6,0c1.5,0-0.9-2.8-0.9-0.4c0,3,0,6,0,9c0,5.6,0,11.3,0,16.9c0,9.7,15,9.7,15,0     c0-6,0-11.9,0-17.9c0-8.1,0.8-15.9-7.1-21c-3.7-2.3-9.4-1.6-13.6-1.6c-7,0-14.1,0-21.1,0c-13.5,0-27,0-40.5,0     c-8,0-15.2,4.9-15.2,13.7c0,6.5,0,13,0,19.5c0,2.4,0,4.9,0,7.3c0,4.1,3.4,7.5,7.5,7.5c27.5,0,55,0,82.5,0     C183.2,444.2,183.2,429.2,173.5,429.2z"/></g></g><g><g><path d="M173.5,444.2c9.7,0,9.7-15,0-15S163.8,444.2,173.5,444.2L173.5,444.2z"/></g></g><g><g><path d="M173.5,214.8c-27.5,0-55,0-82.5,0c-4.1,0-7.5,3.4-7.5,7.5c0,6,0,11.9,0,17.9c0,7.1-1.2,16.5,6.3,20.6     c4.4,2.4,8.9,2,13.7,2c6.9,0,13.8,0,20.8,0c13.7,0,27.4,0,41.1,0c8.5,0,14.7-4.6,15.6-13.5c0.6-5.8,0-12,0-17.9c0-3,0-6.1,0-9.1     c0-9.7-15-9.7-15,0c0,5.6,0,11.3,0,16.9c0,3,0,6,0,9c0,1.4-0.4,1,0.4,0c0.5-0.6,1.6-0.4,0.6-0.4c-11.6,0-23.2,0-34.8,0     s-23.2,0-34.8,0c-0.9,0-0.1-0.2,0.6,0.4c0.8,0.6,0.4,1.6,0.4,0c0-3,0-6,0-9c0-5.6,0-11.3,0-16.9c-2.5,2.5-5,5-7.5,7.5     c27.5,0,55,0,82.5,0C183.2,229.8,183.2,214.8,173.5,214.8z"/></g></g><g><g><path d="M453.2,469.7c0-6,0-11.9,0-17.9c0-7.1,1.2-16.5-6.4-20.6c-6.2-3.4-14.7-2-21.6-2c-2.7,0-5.4,0-8.1,0     c-25.9,0-51.8,0-77.7,0c-48.2,0-96.4,0-144.5,0c-39.5,0-78.9,0-118.4,0c-5.3,0-9.5,0.4-13.8,3.9c-3.8,3.2-3.9,8.4-3.9,12.9     c0,7.9,0,15.8,0,23.7c0,9.7,15,9.7,15,0c0-6,0-11.9,0-17.9c0-2.8,0-5.6,0-8.4c0-1.6-0.2,0.7-1.5,0.8c0.9-0.1,1.9,0,2.8,0     c8.9,0,17.8,0,26.7,0c24,0,47.9,0,71.9,0c50.4,0,100.7,0,151.1,0c16.3,0,32.7,0,49,0c14.2,0,28.3,0,42.5,0c2.5,0,5,0,7.5,0     c3.6,0,7.2,0,10.9,0c1.4,0,2.8,0,4.2,0c2.1,0-0.5-0.1-0.5-1.5c0,9,0,18,0,27C438.2,479.4,453.2,479.4,453.2,469.7L453.2,469.7z"/></g></g><g><g><g><path d="M454,163.8c9.7,0,9.7-15,0-15C444.3,148.8,444.3,163.8,454,163.8L454,163.8z"/><path d="M61.8,162.7c37-27.8,74.1-55.6,111.1-83.3c22.3-16.7,44.6-33.5,67-50.2c5.1-3.8,10.2-7.7,15.3-11.5      c1.1-0.8,0.5-0.7,0.8-0.5c1.4,1.1,2.8,2.1,4.2,3.2c44,33,88,66,132,99c19.3,14.5,38.6,28.9,57.9,43.4c3.3,2.5,8.4,0.5,10.3-2.7      c2.2-3.8,0.6-7.8-2.7-10.3c-37-27.8-74.1-55.6-111.1-83.3c-22.3-16.7-44.6-33.5-67-50.2c-5.1-3.8-10.2-7.7-15.3-11.5      C258.2,0.2,251.5,1.8,246,6c-42.6,32-85.3,64-127.9,95.9c-21.3,16-42.6,31.9-63.9,47.9c-3.3,2.4-4.9,6.4-2.7,10.3      C53.4,163.3,58.5,165.2,61.8,162.7L61.8,162.7z"/></g></g><g><g><path d="M404.5,163.8c9.7,0,9.7-15,0-15C394.8,148.8,394.8,163.8,404.5,163.8L404.5,163.8z"/><path d="M111.3,162.7c40.4-29.2,80.8-58.4,121.3-87.6c7.2-5.2,14.4-10.4,21.7-15.6c0.6-0.4,1.2-0.9,1.8-1.3      c0.6-0.4-0.4-0.3-0.1-0.1c1.6,1.2,3.2,2.3,4.9,3.5c21.3,15.4,42.6,30.7,63.9,46.1c25.4,18.3,50.8,36.7,76.1,55      c3.3,2.4,8.3,0.6,10.3-2.7c2.2-3.8,0.6-7.9-2.7-10.3c-40.4-29.2-80.8-58.4-121.3-87.6c-7.2-5.2-14.4-10.4-21.7-15.6      c-3.5-2.5-7.5-4.5-12.1-3.3c-3,0.8-4.9,2.1-7.3,3.8c-19.9,14.4-39.8,28.7-59.7,43.1c-27.5,19.9-55,39.8-82.6,59.6      c-3.3,2.4-4.9,6.5-2.7,10.3C103,163.3,108,165.1,111.3,162.7L111.3,162.7z"/></g></g><g><g><path d="M259.6,18c9.7,0,9.7-15,0-15C249.9,3,249.9,18,259.6,18L259.6,18z"/></g></g></g><g><g><path d="M259.5,59c9.7,0,9.7-15,0-15C249.8,44,249.8,59,259.5,59L259.5,59z"/></g></g><g><g><path d="M454,196.8c9.7,0,9.7-15,0-15C444.3,181.8,444.3,196.8,454,196.8L454,196.8z"/></g></g><g><g><path d="M51.5,193c5,9.9,9.9,19.8,14.8,29.7c5.1,10.2,21.2,7,30.9,7c25.4,0,50.7,0,76.1,0c49,0,98,0,147.1,0c15.5,0,31,0,46.5,0     c15.1,0,30.2,0,45.3,0c2.9,0,5.8,0,8.7,0c6.5,0,14.5,1.3,20.3-2.3c5.5-3.4,8.2-12.4,10.9-17.8c2.8-5.5,5.5-11.1,8.3-16.6     c4.3-8.6-8.6-16.2-13-7.6c-4.9,9.9-9.9,19.8-14.8,29.7c0.4-0.9,1.6-0.4-0.9-0.4c-1.8,0-3.6,0-5.4,0c-1.9,0-3.8,0-5.7,0     c-3.7,0-7.4,0-11.2,0c-23.8,0-47.5,0-71.3,0c-50.5,0-101.1,0-151.6,0c-16.5,0-33,0-49.4,0c-14,0-28,0-42,0c-2.9,0-5.8,0-8.7,0     c-2.8,0-5.5,0-8.3,0c1.2,0,1.3,0.8,0.7-0.4c-0.6-1.2-1.2-2.3-1.7-3.5c-4.2-8.5-8.5-16.9-12.7-25.4     C60.2,176.8,47.2,184.4,51.5,193L51.5,193z"/></g></g><g><g><path d="M464.5,148.8c-33.5,0-67,0-100.5,0c-64.2,0-128.5,0-192.7,0c-40.6,0-81.1,0-121.7,0c-0.7,0-1.4,0-2.1,0     c-5.6,0-11.1,3.8-12.7,9.2c-0.9,3-0.7,6.1-0.7,9.2c0,6.4-1.2,14.2,0.7,20.5c1.8,5.8,7.5,9.2,13.4,9.2c11.9,0,23.9,0,35.8,0     c57.7,0,115.4,0,173.1,0c57.4,0,114.8,0,172.2,0c11.1,0,22.1,0,33.2,0c8.3,0,15.6-4.9,15.6-14c0-5.7,0-11.5,0-17.2     C478,156.6,474.2,149.7,464.5,148.8c-4.1-0.4-7.5,3.7-7.5,7.5c0,4.4,3.4,7.1,7.5,7.5c-1.5-0.1-1.5-2.5-1.5-0.6c0,1.3,0,2.7,0,4     c0,4,0,8.1,0,12.1c0,1.2,0,2.4,0,3.5c0,1.3,0.3-1,1.5-1c-0.2,0-0.4,0-0.6,0c-3.9,0-7.7,0-11.6,0c-19.6,0-39.1,0-58.7,0     c-62.7,0-125.4,0-188.1,0c-48.8,0-97.7,0-146.5,0c-3.7,0-7.3,0-11,0c-0.2,0-0.3,0-0.5,0c1.5,0,1.5,2.6,1.5,0.6c0-1.6,0-3.2,0-4.8     c0-3.7,0-7.5,0-11.2c0-1.2,0-2.4,0-3.5c0-1.3-0.3,1-1.5,1c9.9,0,19.7,0,29.6,0c56,0,111.9,0,167.9,0c59,0,117.9,0,176.9,0     c14.2,0,28.4,0,42.6,0C474.2,163.8,474.2,148.8,464.5,148.8z"/></g></g><g><g><path d="M464.5,462.2c-33.5,0-67,0-100.5,0c-64.2,0-128.5,0-192.7,0c-40.6,0-81.1,0-121.7,0c-8.4,0-14.7,4.6-15.6,13.5     c-0.9,8.8,0,18.1,0,27c0,4.1,3.4,7.5,7.5,7.5c32.8,0,65.6,0,98.4,0c64.2,0,128.3,0,192.5,0c44.1,0,88.2,0,132.3,0     c1.9,0,3.8,0,5.7,0c4.1,0,7.5-3.4,7.5-7.5c0-6.6,0-13.1,0-19.7c0-2.4,0-4.9,0-7.3C478,467.8,471.8,463,464.5,462.2     c-4.1-0.4-7.5,3.7-7.5,7.5c0,4.4,3.4,7.1,7.5,7.5c-1.1-0.1-1.5-2.1-1.5-1.1c0,0.8,0,1.5,0,2.3c0,3.1,0,6.2,0,9.3c0,5,0,10,0,15     c2.5-2.5,5-5,7.5-7.5c-32.8,0-65.6,0-98.4,0c-64.2,0-128.3,0-192.5,0c-44.1,0-88.2,0-132.3,0c-1.9,0-3.8,0-5.7,0     c2.5,2.5,5,5,7.5,7.5c0-6,0-11.9,0-17.9c0-2.8,0-5.6,0-8.4c0-1.7-0.9,0.8-1.4,0.8c3.2,0,6.4,0,9.6,0c18.6,0,37.2,0,55.8,0     c62.2,0,124.4,0,186.6,0c50.2,0,100.5,0,150.7,0c4.7,0,9.4,0,14.1,0C474.2,477.2,474.2,462.2,464.5,462.2z"/></g></g></g></svg>