<?xml version="1.0" ?><!DOCTYPE svg  PUBLIC '-//W3C//DTD SVG 1.1//EN'  'http://www.w3.org/Graphics/SVG/1.1/DTD/svg11.dtd'><svg enable-background="new 0 0 512 512" height="512px" id="camel" version="1.1" viewBox="0 0 512 512" width="512px" xml:space="preserve" xmlns="http://www.w3.org/2000/svg" xmlns:xlink="http://www.w3.org/1999/xlink"><g><circle cx="80.354" cy="144.877" r="5.947"/><path d="M489.802,246.77c-5.848-1.924-10.081-7.437-10.081-13.92v-24.131c0.824-16.816-4.05-32.684-13.981-44.664   c-10.547-12.724-25.874-19.73-43.158-19.73c-1.164,0-2.241-0.63-2.746-1.605c-15.32-29.622-59.061-50.409-76.918-50.409   c-0.005,0-0.009,0-0.014,0c-8.4,0-23.161,4.766-36.87,11.717c-3.293,1.669-4.514,5.763-2.687,8.971l0.026,0.047   c1.714,3.011,5.49,4.118,8.579,2.549c13.778-6.999,26.246-10.284,30.955-10.284c0.002,0,0.004,0,0.006,0   c12.808,0,52.413,18.319,65.375,43.381c2.755,5.325,8.231,8.633,14.293,8.633c13.537,0,25.001,5.196,33.15,15.027   c7.173,8.652,11,20.005,11.091,32.274h-0.102v3.798c-0.152,2.784-0.478,5.602-1.013,8.439l-1.825,9.676l-7.721,23.568v1.038   c0,1.451,0.169,35.354,14.656,45.765c0.125,0.468,0.257,1.593-0.023,3.497l-5.915,49.729l-0.046,0.382v60.554h-6.767v-83.269   c0-1.264-0.079-2.521-0.214-3.769l0.007-0.025l-0.009-0.003c-1.083-10.001-6.379-19.374-14.644-25.61   c-6.031-4.557-10.777-16.469-13.365-33.557l-0.028-0.186c-0.054-0.35-0.108-0.689-0.148-1.034l-0.021-0.161   c-1.352-9.498-1.618-17.619-1.668-19.909c-0.043-2.355-1.316-4.554-3.344-5.76c-2.007-1.193-4.511-1.276-6.587-0.229   c-6.579,3.254-25.111,9.939-40.664,9.939c-10.678,0-21.378-1.347-31.794-4c-4.7-1.204-9.3-2.75-14.084-4.737l-0.353-0.143   c-0.152-0.062-0.304-0.123-0.47-0.193c-2.295-0.963-4.951-0.925-7.096,0.338c-3.369,1.986-4.677,5.98-3.355,9.464   c1.006,2.642,1.834,5.401,2.462,8.201c0.964,4.297,1.448,8.671,1.44,13.013c0,1.758-0.089,3.576-0.266,5.412   c-1.377,14.438-7.707,25.024-12.775,31.363l-1.442,1.804l0.02,2.31c0.132,15.444,10.421,43.601,10.872,44.825l20.91,55.917h-7.983   l-51.262-135.451c-2.735-11.152-9.774-20.812-19.884-27.239l-3.368-2.141l-0.385-0.227c-20.714-11.251-29.071-21.395-30.531-38.255   c-0.287-3.32-3.103-5.852-6.435-5.852h-0.04c-3.804,0-6.8,3.272-6.448,7.06c1.195,12.875,5.735,22.515,12.775,30.397l4.602,18.392   l-17.715-6.504c-9.678-3.554-19.921-5.169-30.23-5.204c-24.539-0.081-47.59-12.067-61.751-32.108l-19.309-32.313   c2.334-1.235,4.528-2.734,6.533-4.473c3.104-2.69,2.79-7.615-0.531-10.032l-0.053-0.039c-2.419-1.76-5.735-1.638-8.001,0.315   c-3.305,2.849-7.418,4.66-11.8,5.12c-1.798,0.188-3.628,0.289-5.438,0.297c-0.09,0-0.177,0-0.267,0   c-12.543,0-22.272-4.24-28.238-7.812l-1.542-0.923H40.168c-5.26,0-9.539-4.279-9.539-9.539c0-1.28,0.813-2.421,2.024-2.839   l45.724-17.824c5.333-2.08,10.941-3.132,16.667-3.126c6.847,0.007,13.166,3.688,16.572,9.627l31.938,55.691   c5.965,10.404,17.122,16.868,29.115,16.868c14.263,0,26.938-8.874,31.54-22.082c4.947-14.196,17.177-24.929,31.917-28.011   c6.777-1.417,13.723-2.267,20.645-2.523c8.028-0.297,15.274-5.079,18.684-12.353c2.534-5.408,6.623-10.739,12.189-15.898   c2.49-2.309,2.719-6.175,0.593-8.824c-2.331-2.905-6.657-3.277-9.39-0.745c-6.818,6.316-11.902,12.999-15.154,19.93   c-1.354,2.886-4.167,4.78-7.353,4.896c-7.669,0.282-15.365,1.221-22.875,2.792c-19.179,4.01-35.092,17.979-41.531,36.457   c-2.785,7.991-10.527,13.36-19.265,13.36c-7.348,0-14.183-3.959-17.838-10.334l-31.938-55.692c-1.428-2.49-3.166-4.744-5.149-6.725   c-0.494-14.171-7.488-27.676-19.397-37.26c-2.728-2.194-6.551-2.625-9.742-1.097c-3.052,1.461-4.947,4.416-4.947,7.71v22.322   c-3.399,0.669-6.742,1.632-10.003,2.904l-45.38,17.696c-6.373,2.264-10.646,8.306-10.646,15.08   c0,12.428,10.111,22.539,22.539,22.539h10.44c7.46,4.191,18.881,8.735,33.324,8.735c0.109,0,0.22,0,0.329,0   c2.124-0.011,4.268-0.13,6.381-0.341l21.119,35.342l0.26,0.4c16.563,23.594,43.619,37.718,72.433,37.829   c9.045,0.035,18.024,1.536,26.515,4.654l25.34,9.305l11.104,44.377l-4.688,93.688h-1.604c-3.59,0-6.5,2.91-6.5,6.5   s2.91,6.5,6.5,6.5h32.757l9.521-95.781l0.013-12.756l36.157,95.539h-2.558c-3.59,0-6.5,2.91-6.5,6.5s2.91,6.5,6.5,6.5h43.181   l-27.462-73.437c-2.596-7.065-9.096-26.816-9.965-38.269c5.642-7.574,11.998-19.196,13.839-34.521   c8.803,2.226,21.559,4.543,40.569,4.543c6.933,0,13.666-0.541,20.096-1.608c3.086,14.372,7.144,29.989,15.696,36.462   c5.983,4.533,9.498,11.188,9.717,18.347l-17.875,75.483h-4.406c-3.59,0-6.5,2.91-6.5,6.5s2.91,6.5,6.5,6.5h31.338l13.328-51.051   v38.049h-3.436c-3.59,0-6.5,2.91-6.5,6.5s2.91,6.5,6.5,6.5h36.202v-72.783l5.836-49.081c1.405-9.743-2.63-14.071-5.167-15.785   c-5.369-3.63-9.151-20.71-9.334-34.261l1.608-4.911c3.443,5.62,8.837,9.922,15.232,11.956c4.146,1.318,8.361-1.882,8.361-6.232   v-0.004C494.371,250.125,492.505,247.659,489.802,246.77z M96.657,106.507c3.021,3.765,5.256,7.948,6.612,12.339   c-2.144-0.573-4.358-0.919-6.612-1.037V106.507z M270.432,327.325l-8.325,83.746h-6.364l4.751-94.967l-15.791-63.111   c2.382,1.485,4.871,2.925,7.466,4.338l3.181,2.022c7.269,4.62,12.491,11.812,14.315,19.661c0.386,2.057,0.768,14.166,0.768,17.795   V327.325z M377.174,269.39c-19.694,0-32.089-2.667-40.228-4.901c-0.238-3.478-0.71-6.956-1.455-10.392   c2.283,0.743,4.568,1.406,6.88,1.999c11.473,2.921,23.253,4.404,35.012,4.404c13.794,0,28.566-4.271,38.041-7.781   c0.199,2.683,0.484,5.769,0.893,9.101c-4.14,1.721-9.274,3.604-15.679,5.061C393.315,268.546,385.421,269.39,377.174,269.39z    M421.698,411.073h-3.531l17.526-74.012v-0.759c0-11.535-5.423-22.259-14.88-29.423c-5.423-4.105-9.285-21.561-10.874-29.004   c3.173-0.938,6.01-1.937,8.519-2.909c3.455,16.559,9.126,27.918,16.917,33.804c4.889,3.689,8.115,8.823,9.241,14.508   L421.698,411.073z"/></g></svg>