<?xml version="1.0" ?><svg viewBox="0 0 96 96" xmlns="http://www.w3.org/2000/svg"><title/><g id="Location"><path d="M29.5,43.6c.33.79,16.25,27.6,18.07,30.66a.5.5,0,0,0,.43.24h0a.48.48,0,0,0,.43-.25L66.5,43.57l0-.07A19.77,19.77,0,0,0,68,36a20,20,0,1,0-38.54,7.49ZM48,17A19,19,0,0,1,67,36a18.8,18.8,0,0,1-1.38,7.09L48,73c-5.16-8.69-17.21-29-17.56-29.78a.76.76,0,0,1,0-.11A19,19,0,0,1,48,17Z"/><path d="M48,46.25A10.25,10.25,0,1,0,37.75,36,10.26,10.26,0,0,0,48,46.25Zm0-19.5A9.25,9.25,0,1,1,38.75,36,9.26,9.26,0,0,1,48,26.75Z"/><path d="M67.5,77h-39a.5.5,0,0,0,0,1h39a.5.5,0,0,0,0-1Z"/></g></svg>